<svg width="90" height="15" viewBox="0 0 90 15" fill="none" xmlns="http://www.w3.org/2000/svg">
<path d="M0.485352 14V1.20312H4.66895C6.05762 1.20312 7.10059 1.49023 7.79785 2.06445C8.50098 2.63867 8.85254 3.48828 8.85254 4.61328C8.85254 5.21094 8.68262 5.74121 8.34277 6.2041C8.00293 6.66113 7.54004 7.01562 6.9541 7.26758C7.64551 7.46094 8.19043 7.83008 8.58887 8.375C8.99316 8.91406 9.19531 9.55859 9.19531 10.3086C9.19531 11.457 8.82324 12.3594 8.0791 13.0156C7.33496 13.6719 6.2832 14 4.92383 14H0.485352ZM2.17285 8.01465V12.6201H4.95898C5.74414 12.6201 6.3623 12.418 6.81348 12.0137C7.27051 11.6035 7.49902 11.041 7.49902 10.3262C7.49902 8.78516 6.66113 8.01465 4.98535 8.01465H2.17285ZM2.17285 6.66113H4.72168C5.45996 6.66113 6.04883 6.47656 6.48828 6.10742C6.93359 5.73828 7.15625 5.2373 7.15625 4.60449C7.15625 3.90137 6.95117 3.3916 6.54102 3.0752C6.13086 2.75293 5.50684 2.5918 4.66895 2.5918H2.17285V6.66113ZM11.0146 9.15723C11.0146 8.22559 11.1963 7.3877 11.5596 6.64355C11.9287 5.89941 12.4385 5.3252 13.0889 4.9209C13.7451 4.5166 14.4922 4.31445 15.3301 4.31445C16.625 4.31445 17.6709 4.7627 18.4678 5.65918C19.2705 6.55566 19.6719 7.74805 19.6719 9.23633V9.35059C19.6719 10.2764 19.4932 11.1084 19.1357 11.8467C18.7842 12.5791 18.2773 13.1504 17.6152 13.5605C16.959 13.9707 16.2031 14.1758 15.3477 14.1758C14.0586 14.1758 13.0127 13.7275 12.21 12.8311C11.4131 11.9346 11.0146 10.748 11.0146 9.27148V9.15723ZM12.6494 9.35059C12.6494 10.4053 12.8926 11.252 13.3789 11.8906C13.8711 12.5293 14.5273 12.8486 15.3477 12.8486C16.1738 12.8486 16.8301 12.5264 17.3164 11.8818C17.8027 11.2314 18.0459 10.3232 18.0459 9.15723C18.0459 8.11426 17.7969 7.27051 17.2988 6.62598C16.8066 5.97559 16.1504 5.65039 15.3301 5.65039C14.5273 5.65039 13.8799 5.96973 13.3877 6.6084C12.8955 7.24707 12.6494 8.16113 12.6494 9.35059ZM23.4775 14H21.8516V4.49023H23.4775V14ZM21.7197 1.96777C21.7197 1.7041 21.7988 1.48145 21.957 1.2998C22.1211 1.11816 22.3613 1.02734 22.6777 1.02734C22.9941 1.02734 23.2344 1.11816 23.3984 1.2998C23.5625 1.48145 23.6445 1.7041 23.6445 1.96777C23.6445 2.23145 23.5625 2.45117 23.3984 2.62695C23.2344 2.80273 22.9941 2.89062 22.6777 2.89062C22.3613 2.89062 22.1211 2.80273 21.957 2.62695C21.7988 2.45117 21.7197 2.23145 21.7197 1.96777ZM27.8545 14H26.2285V0.5H27.8545V14ZM34.4111 14.1758C33.1221 14.1758 32.0732 13.7539 31.2646 12.9102C30.4561 12.0605 30.0518 10.9268 30.0518 9.50879V9.20996C30.0518 8.2666 30.2305 7.42578 30.5879 6.6875C30.9512 5.94336 31.4551 5.36328 32.0996 4.94727C32.75 4.52539 33.4531 4.31445 34.209 4.31445C35.4453 4.31445 36.4062 4.72168 37.0918 5.53613C37.7773 6.35059 38.1201 7.5166 38.1201 9.03418V9.71094H31.6777C31.7012 10.6484 31.9736 11.4072 32.4951 11.9873C33.0225 12.5615 33.6904 12.8486 34.499 12.8486C35.0732 12.8486 35.5596 12.7314 35.958 12.4971C36.3564 12.2627 36.7051 11.9521 37.0039 11.5654L37.9971 12.3389C37.2002 13.5635 36.0049 14.1758 34.4111 14.1758ZM34.209 5.65039C33.5527 5.65039 33.002 5.89062 32.5566 6.37109C32.1113 6.8457 31.8359 7.51367 31.7305 8.375H36.4941V8.25195C36.4473 7.42578 36.2246 6.78711 35.8262 6.33594C35.4277 5.87891 34.8887 5.65039 34.209 5.65039ZM44.6064 5.94922C44.3604 5.9082 44.0938 5.8877 43.8066 5.8877C42.7402 5.8877 42.0166 6.3418 41.6357 7.25V14H40.0098V4.49023H41.5918L41.6182 5.58887C42.1514 4.73926 42.9072 4.31445 43.8857 4.31445C44.2021 4.31445 44.4424 4.35547 44.6064 4.4375V5.94922ZM52.5166 8.99023V14H50.8291V1.20312H55.5488C56.9492 1.20312 58.0449 1.56055 58.8359 2.27539C59.6328 2.99023 60.0312 3.93652 60.0312 5.11426C60.0312 6.35645 59.6416 7.31445 58.8623 7.98828C58.0889 8.65625 56.9785 8.99023 55.5312 8.99023H52.5166ZM52.5166 7.61035H55.5488C56.4512 7.61035 57.1426 7.39941 57.623 6.97754C58.1035 6.5498 58.3438 5.93457 58.3438 5.13184C58.3438 4.37012 58.1035 3.76074 57.623 3.30371C57.1426 2.84668 56.4834 2.60938 55.6455 2.5918H52.5166V7.61035ZM63.6963 14H62.0703V0.5H63.6963V14ZM72.1777 14C72.084 13.8125 72.0078 13.4785 71.9492 12.998C71.1934 13.7832 70.291 14.1758 69.2422 14.1758C68.3047 14.1758 67.5342 13.9121 66.9307 13.3848C66.333 12.8516 66.0342 12.1777 66.0342 11.3633C66.0342 10.373 66.4092 9.60547 67.1592 9.06055C67.915 8.50977 68.9756 8.23438 70.3408 8.23438H71.9229V7.4873C71.9229 6.91895 71.7529 6.46777 71.4131 6.13379C71.0732 5.79395 70.5723 5.62402 69.9102 5.62402C69.3301 5.62402 68.8438 5.77051 68.4512 6.06348C68.0586 6.35645 67.8623 6.71094 67.8623 7.12695H66.2275C66.2275 6.65234 66.3945 6.19531 66.7285 5.75586C67.0684 5.31055 67.5254 4.95898 68.0996 4.70117C68.6797 4.44336 69.3154 4.31445 70.0068 4.31445C71.1025 4.31445 71.9609 4.58984 72.582 5.14062C73.2031 5.68555 73.5254 6.43848 73.5488 7.39941V11.7764C73.5488 12.6494 73.6602 13.3438 73.8828 13.8594V14H72.1777ZM69.4795 12.7607C69.9893 12.7607 70.4727 12.6289 70.9297 12.3652C71.3867 12.1016 71.7178 11.7588 71.9229 11.3369V9.38574H70.6484C68.6562 9.38574 67.6602 9.96875 67.6602 11.1348C67.6602 11.6445 67.8301 12.043 68.1699 12.3301C68.5098 12.6172 68.9463 12.7607 69.4795 12.7607ZM78.3037 2.1875V4.49023H80.0791V5.74707H78.3037V11.6445C78.3037 12.0254 78.3828 12.3125 78.541 12.5059C78.6992 12.6934 78.9688 12.7871 79.3496 12.7871C79.5371 12.7871 79.7949 12.752 80.123 12.6816V14C79.6953 14.1172 79.2793 14.1758 78.875 14.1758C78.1484 14.1758 77.6006 13.9561 77.2314 13.5166C76.8623 13.0771 76.6777 12.4531 76.6777 11.6445V5.74707H74.9463V4.49023H76.6777V2.1875H78.3037ZM85.9326 14.1758C84.6436 14.1758 83.5947 13.7539 82.7861 12.9102C81.9775 12.0605 81.5732 10.9268 81.5732 9.50879V9.20996C81.5732 8.2666 81.752 7.42578 82.1094 6.6875C82.4727 5.94336 82.9766 5.36328 83.6211 4.94727C84.2715 4.52539 84.9746 4.31445 85.7305 4.31445C86.9668 4.31445 87.9277 4.72168 88.6133 5.53613C89.2988 6.35059 89.6416 7.5166 89.6416 9.03418V9.71094H83.1992C83.2227 10.6484 83.4951 11.4072 84.0166 11.9873C84.5439 12.5615 85.2119 12.8486 86.0205 12.8486C86.5947 12.8486 87.0811 12.7314 87.4795 12.4971C87.8779 12.2627 88.2266 11.9521 88.5254 11.5654L89.5186 12.3389C88.7217 13.5635 87.5264 14.1758 85.9326 14.1758ZM85.7305 5.65039C85.0742 5.65039 84.5234 5.89062 84.0781 6.37109C83.6328 6.8457 83.3574 7.51367 83.252 8.375H88.0156V8.25195C87.9688 7.42578 87.7461 6.78711 87.3477 6.33594C86.9492 5.87891 86.4102 5.65039 85.7305 5.65039Z" fill="black"/>
</svg>
